<svg width="48" height="30" viewBox="0 0 48 30" version="1.1" xmlns="http://www.w3.org/2000/svg" xmlns:xlink="http://www.w3.org/1999/xlink">
<title>Logo</title>
<desc>Created using Figma</desc>
<g id="Canvas" transform="translate(105 1)">
<g id="Logo">
<use xlink:href="#path0_fill" transform="translate(-102 -5)"/>
</g>
</g>
<defs>
<path id="path0_fill" d="M 3.86719 14.0312C 3.07031 14.0312 2.42188 13.9453 1.92188 13.7734C 1.4375 13.6016 1.10937 13.3828 0.9375 13.1172C 0.859375 13.0078 0.789063 12.8438 0.726562 12.625C 0.664063 12.4062 0.6875 12.1641 0.796875 11.8984C 1.01562 12.0703 1.25 12.2031 1.5 12.2969C 1.76563 12.375 2.00781 12.4297 2.22656 12.4609C 2.49219 12.5078 2.75 12.5312 3 12.5312C 3.46875 12.5312 3.92187 12.4922 4.35938 12.4141C 4.8125 12.3359 5.25781 12.2266 5.69531 12.0859C 5.88281 11.1484 6.0625 10.3047 6.23438 9.55469C 6.42188 8.80469 6.63281 8.19531 6.86719 7.72656C 7.11719 7.21094 7.375 6.75 7.64062 6.34375C 7.92188 5.92188 8.22656 5.57031 8.55469 5.28906C 8.89844 4.99219 9.27344 4.76563 9.67969 4.60938C 10.0859 4.45312 10.5547 4.375 11.0859 4.375C 11.4766 4.375 11.7812 4.45312 12 4.60938C 12.2344 4.76563 12.4062 4.96094 12.5156 5.19531C 12.6406 5.42969 12.7109 5.6875 12.7266 5.96875C 12.7578 6.23437 12.7734 6.48438 12.7734 6.71875C 12.7734 7.23438 12.6484 7.79688 12.3984 8.40625C 12.1484 9.01562 11.7969 9.61719 11.3438 10.2109C 10.8906 10.8047 10.3438 11.3672 9.70312 11.8984C 9.07813 12.4297 8.375 12.8672 7.59375 13.2109C 7.32812 14.2422 7.0625 15.2656 6.79688 16.2812C 6.54688 17.2813 6.29687 18.1094 6.04688 18.7656C 5.82813 19.375 5.54688 20.0547 5.20312 20.8047C 4.875 21.5547 4.46875 22.2734 3.98438 22.9609C 4.28125 23.1484 4.57812 23.3437 4.875 23.5469C 5.1875 23.75 5.5 23.9297 5.8125 24.0859C 6.125 24.2578 6.4375 24.3984 6.75 24.5078C 7.07812 24.6172 7.42187 24.6719 7.78125 24.6719C 8.15625 24.6563 8.52344 24.6016 8.88281 24.5078C 9.19531 24.4297 9.52344 24.2969 9.86719 24.1094C 10.2109 23.9375 10.5313 23.6875 10.8281 23.3594C 10.9375 23.5469 10.9688 23.8281 10.9219 24.2031C 10.8906 24.5781 10.7734 24.9531 10.5703 25.3281C 10.3672 25.7031 10.0781 26.0312 9.70312 26.3125C 9.32812 26.5938 8.85938 26.7344 8.29688 26.7344C 7.70312 26.7344 7.14844 26.6484 6.63281 26.4766C 6.11719 26.3203 5.63281 26.125 5.17969 25.8906C 4.72656 25.6562 4.29687 25.3984 3.89062 25.1172C 3.5 24.8516 3.13281 24.6016 2.78906 24.3672C 2.32031 24.8203 1.80469 25.1875 1.24219 25.4688C 0.679688 25.75 0.0546875 25.8906 -0.632812 25.8906C -1.17969 25.8906 -1.61719 25.7344 -1.94531 25.4219C -2.27344 25.125 -2.42188 24.7188 -2.39062 24.2031C -2.375 24.0156 -2.32031 23.7891 -2.22656 23.5234C -2.13281 23.2734 -1.95313 23.0312 -1.6875 22.7969C -1.4375 22.5625 -1.08594 22.3594 -0.632812 22.1875C -0.179687 22.0313 0.40625 21.9531 1.125 21.9531C 1.39062 21.9531 1.64062 21.9766 1.875 22.0234C 2.125 22.0859 2.36719 22.1562 2.60156 22.2344C 2.77344 21.9219 2.94531 21.5625 3.11719 21.1562C 3.28906 20.75 3.47656 20.2891 3.67969 19.7734C 4.03906 18.7891 4.35156 17.8047 4.61719 16.8203C 4.88281 15.8203 5.10938 14.8516 5.29688 13.9141C 5.07813 13.9609 4.84375 13.9922 4.59375 14.0078C 4.35938 14.0234 4.11719 14.0312 3.86719 14.0312ZM -0.0234375 24.625C 0.179687 24.5469 0.414062 24.4688 0.679688 24.3906C 0.945312 24.3125 1.25 24.0938 1.59375 23.7344C 1.35938 23.6562 1.17969 23.6172 1.05469 23.6172C 0.492188 23.6172 0.0859375 23.6953 -0.164062 23.8516C -0.429688 24.0234 -0.5625 24.1875 -0.5625 24.3438C -0.5625 24.4531 -0.515625 24.5312 -0.421875 24.5781C -0.328125 24.6406 -0.195312 24.6563 -0.0234375 24.625ZM 8.83594 8.3125C 8.75781 8.54688 8.65625 8.89063 8.53125 9.34375C 8.40625 9.79687 8.27344 10.3203 8.13281 10.9141C 8.97656 10.3672 9.64844 9.74219 10.1484 9.03906C 10.6641 8.33594 10.9219 7.63281 10.9219 6.92969C 10.9219 6.50781 10.7969 6.29688 10.5469 6.29688C 10.3281 6.29688 10.0469 6.46875 9.70312 6.8125C 9.35938 7.14062 9.07031 7.64062 8.83594 8.3125ZM 18.75 18.2734C 18.5938 18.8672 18.3828 19.4219 18.1172 19.9375C 17.8516 20.4531 17.5312 20.8984 17.1562 21.2734C 16.7969 21.6484 16.3828 21.9375 15.9141 22.1406C 15.4609 22.3594 14.9609 22.4688 14.4141 22.4688C 13.7734 22.4688 13.2656 22.3281 12.8906 22.0469C 12.5312 21.7813 12.2578 21.4453 12.0703 21.0391C 11.8984 20.6328 11.7969 20.1875 11.7656 19.7031C 11.7188 19.2188 11.6953 18.7656 11.6953 18.3438C 11.6953 18.0469 11.7344 17.7187 11.8125 17.3594C 11.875 17 11.9687 16.6328 12.0938 16.2578C 12.2188 15.8828 12.375 15.5078 12.5625 15.1328C 12.7656 14.7578 13 14.4141 13.2656 14.1016C 13.3594 13.8359 13.5 13.6016 13.6875 13.3984C 13.8906 13.1953 14.1172 13.0313 14.3672 12.9062C 14.6328 12.7656 14.9141 12.6641 15.2109 12.6016C 15.5078 12.5234 15.7969 12.4844 16.0781 12.4844C 16.125 12.4844 16.1641 12.4922 16.1953 12.5078C 16.2422 12.5234 16.2891 12.5391 16.3359 12.5547C 16.5391 12.5703 16.7891 12.6484 17.0859 12.7891C 17.3984 12.9297 17.6953 13.1406 17.9766 13.4219C 18.2734 13.7031 18.5234 14.0625 18.7266 14.5C 18.9297 14.9219 19.0312 15.4375 19.0312 16.0469C 19.0312 16.1719 19.0234 16.3281 19.0078 16.5156C 18.9922 16.6875 18.9766 16.8359 18.9609 16.9609C 19.3203 16.8203 19.6953 16.6484 20.0859 16.4453C 20.4766 16.2422 20.8516 16.0312 21.2109 15.8125C 21.5859 15.5781 21.9297 15.3438 22.2422 15.1094C 22.5547 14.875 22.8047 14.6641 22.9922 14.4766C 23.1484 14.3359 23.2813 14.2578 23.3906 14.2422C 23.5 14.2266 23.5781 14.2578 23.625 14.3359C 23.6719 14.4141 23.6797 14.5234 23.6484 14.6641C 23.6172 14.8047 23.5312 14.9609 23.3906 15.1328C 23.3125 15.2266 23.1094 15.4141 22.7812 15.6953C 22.4687 15.9766 22.0937 16.2812 21.6562 16.6094C 21.2188 16.9375 20.7422 17.2578 20.2266 17.5703C 19.7109 17.8828 19.2188 18.1172 18.75 18.2734ZM 14.7891 14.7109C 14.7422 14.8516 14.7188 15 14.7188 15.1562C 14.7188 15.4062 14.7344 15.6719 14.7656 15.9531C 14.7969 16.2187 14.875 16.4609 15 16.6797C 15.125 16.8984 15.3203 17.0859 15.5859 17.2422C 15.8672 17.3828 16.25 17.4531 16.7344 17.4531C 16.8125 17.4531 16.8906 17.4531 16.9688 17.4531C 17.0469 17.4375 17.125 17.4219 17.2031 17.4062C 17.25 17.2031 17.2891 17.0234 17.3203 16.8672C 17.3672 16.6953 17.3906 16.5469 17.3906 16.4219C 17.4219 16.125 17.4219 15.8203 17.3906 15.5078C 17.3594 15.1953 17.2969 14.9141 17.2031 14.6641C 17.125 14.3984 17.0156 14.1875 16.875 14.0312C 16.75 13.8594 16.5938 13.7734 16.4062 13.7734C 16.1094 13.7734 15.8203 13.8594 15.5391 14.0312C 15.2734 14.1875 15.0234 14.4141 14.7891 14.7109ZM 13.2891 18.8359C 13.2891 19.1172 13.3047 19.3984 13.3359 19.6797C 13.3672 19.9453 13.4297 20.1875 13.5234 20.4062C 13.6172 20.6094 13.7422 20.7812 13.8984 20.9219C 14.0547 21.0469 14.2578 21.1094 14.5078 21.1094C 14.7891 21.1094 15.0469 21.0469 15.2812 20.9219C 15.5156 20.7812 15.7266 20.6094 15.9141 20.4062C 16.1016 20.1875 16.2656 19.9453 16.4062 19.6797C 16.5625 19.3984 16.6953 19.1094 16.8047 18.8125C 16.6953 18.8281 16.5859 18.8437 16.4766 18.8594C 16.3828 18.8594 16.2734 18.8594 16.1484 18.8594C 15.5547 18.8594 15.0391 18.6875 14.6016 18.3438C 14.1797 17.9844 13.8516 17.5312 13.6172 16.9844C 13.5234 17.3125 13.4453 17.6328 13.3828 17.9453C 13.3203 18.2578 13.2891 18.5547 13.2891 18.8359ZM 27.4453 25.3516C 27.3672 25.7266 27.2656 26.1953 27.1406 26.7578C 27.0312 27.3203 26.8984 27.9141 26.7422 28.5391C 26.6016 29.1641 26.4297 29.7812 26.2266 30.3906C 26.0391 31.0156 25.8281 31.5703 25.5938 32.0547C 25.3594 32.5547 25.1016 32.9609 24.8203 33.2734C 24.5391 33.5859 24.2266 33.7422 23.8828 33.7422C 23.3672 33.7422 22.9219 33.5859 22.5469 33.2734C 22.1875 32.9766 21.8828 32.5938 21.6328 32.125C 21.3828 31.6719 21.2031 31.1797 21.0938 30.6484C 20.9688 30.1172 20.9062 29.625 20.9062 29.1719C 20.9062 28.5469 20.9609 28.0234 21.0703 27.6016C 21.1797 27.1953 21.3672 26.8047 21.6328 26.4297C 21.9141 26.0547 22.2891 25.6562 22.7578 25.2344C 23.2266 24.8125 23.8281 24.2891 24.5625 23.6641C 24.9219 23.3516 25.2656 23.0547 25.5938 22.7734C 25.9219 22.4922 26.2344 22.2344 26.5312 22C 26.6094 21.6875 26.6797 21.3984 26.7422 21.1328C 26.8203 20.8516 26.8828 20.6016 26.9297 20.3828C 26.5234 20.9297 26.0313 21.3906 25.4531 21.7656C 24.8906 22.1406 24.2422 22.3281 23.5078 22.3281C 22.8359 22.3281 22.2891 22.0313 21.8672 21.4375C 21.4609 20.8281 21.2578 19.9375 21.2578 18.7656C 21.2578 18.1875 21.3672 17.5234 21.5859 16.7734C 21.8047 16.0234 22.1172 15.3203 22.5234 14.6641C 22.9297 14.0078 23.4297 13.4531 24.0234 13C 24.6172 12.5469 25.2813 12.3203 26.0156 12.3203C 26.3594 12.3203 26.6562 12.4062 26.9062 12.5781C 27.1563 12.75 27.3672 12.9687 27.5391 13.2344C 27.7109 13.4844 27.8438 13.7578 27.9375 14.0547C 28.0312 14.3359 28.1016 14.6016 28.1484 14.8516C 28.1797 14.7578 28.2031 14.6641 28.2188 14.5703C 28.2344 14.4609 28.2578 14.3672 28.2891 14.2891C 28.4453 13.7578 28.6172 13.3984 28.8047 13.2109C 29.0078 13.0078 29.3047 12.9062 29.6953 12.9062C 29.9141 12.9062 30.0938 12.9453 30.2344 13.0234C 30.3906 13.1016 30.4688 13.1719 30.4688 13.2344C 30.3906 13.4063 30.3281 13.5391 30.2812 13.6328C 30.2344 13.7266 30.1875 13.8281 30.1406 13.9375C 30.0938 14.0312 30.0469 14.1563 30 14.3125C 29.9531 14.4687 29.8906 14.6953 29.8125 14.9922C 29.7812 15.1016 29.7188 15.3594 29.625 15.7656C 29.5469 16.1563 29.4375 16.625 29.2969 17.1719C 29.1719 17.7187 29.0312 18.3203 28.875 18.9766C 28.7344 19.6328 28.5938 20.2734 28.4531 20.8984C 28.8906 20.6484 29.3438 20.3438 29.8125 19.9844C 30.2812 19.625 30.7266 19.2578 31.1484 18.8828C 31.5703 18.5078 31.9453 18.1562 32.2734 17.8281C 32.6016 17.4844 32.8438 17.2031 33 16.9844C 33.125 16.7969 33.2656 16.6641 33.4219 16.5859C 33.5781 16.5078 33.7109 16.4844 33.8203 16.5156C 33.9453 16.5313 34.0156 16.6016 34.0312 16.7266C 34.0625 16.8359 34.0156 16.9922 33.8906 17.1953C 33.5313 17.7734 33.0938 18.3359 32.5781 18.8828C 32.0625 19.4141 31.5313 19.9141 30.9844 20.3828C 30.4531 20.8359 29.9297 21.2422 29.4141 21.6016C 28.9141 21.9453 28.4844 22.2266 28.125 22.4453C 27.9688 23.1484 27.8359 23.7188 27.7266 24.1562C 27.6172 24.5937 27.5234 24.9922 27.4453 25.3516ZM 24.4922 20.7344C 24.8203 20.7344 25.125 20.6484 25.4062 20.4766C 25.7031 20.3047 25.9688 20.1094 26.2031 19.8906C 26.4375 19.6562 26.6328 19.4219 26.7891 19.1875C 26.9453 18.9531 27.0625 18.7656 27.1406 18.625C 27.2031 18.4844 27.2734 18.2969 27.3516 18.0625C 27.4453 17.8281 27.5156 17.6016 27.5625 17.3828C 27.6094 17.1641 27.625 16.9687 27.6094 16.7969C 27.6094 16.625 27.5547 16.5313 27.4453 16.5156C 27.3516 16.5 27.2734 16.4375 27.2109 16.3281C 27.1641 16.2187 27.125 16.0938 27.0938 15.9531C 27.0625 15.8125 27.0391 15.6719 27.0234 15.5312C 27.0234 15.3906 27.0156 15.2656 27 15.1562C 26.9219 14.6094 26.7891 14.2109 26.6016 13.9609C 26.4141 13.7109 26.2031 13.5859 25.9688 13.5859C 25.5781 13.5859 25.2031 13.7422 24.8438 14.0547C 24.5 14.3672 24.1875 14.7734 23.9062 15.2734C 23.6406 15.7578 23.4297 16.2969 23.2734 16.8906C 23.1172 17.4688 23.0391 18.0234 23.0391 18.5547C 23.0391 19.2109 23.1328 19.7422 23.3203 20.1484C 23.5078 20.5391 23.8984 20.7344 24.4922 20.7344ZM 23.4141 31.6094C 23.7266 31.6094 23.9766 31.375 24.1641 30.9062C 24.3672 30.4531 24.5781 29.8281 24.7969 29.0312C 24.8438 28.8438 24.9063 28.5703 24.9844 28.2109C 25.0781 27.8672 25.1797 27.4687 25.2891 27.0156C 25.4141 26.5625 25.5391 26.0703 25.6641 25.5391C 25.7891 25.0234 25.9219 24.5 26.0625 23.9688C 25.9375 24.0781 25.8047 24.1875 25.6641 24.2969C 25.5391 24.4219 25.4062 24.5625 25.2656 24.7188C 24.9219 25.0469 24.5859 25.3594 24.2578 25.6562C 23.9453 25.9687 23.6641 26.2891 23.4141 26.6172C 23.1641 26.9609 22.9609 27.3281 22.8047 27.7188C 22.6641 28.1094 22.5938 28.5625 22.5938 29.0781C 22.5938 29.5938 22.6094 30.0156 22.6406 30.3438C 22.6875 30.6719 22.7422 30.9297 22.8047 31.1172C 22.8828 31.3047 22.9688 31.4297 23.0625 31.4922C 23.1719 31.5703 23.2891 31.6094 23.4141 31.6094ZM 39.2344 18.2734C 39.0781 18.8672 38.8672 19.4219 38.6016 19.9375C 38.3359 20.4531 38.0156 20.8984 37.6406 21.2734C 37.2813 21.6484 36.8672 21.9375 36.3984 22.1406C 35.9453 22.3594 35.4453 22.4688 34.8984 22.4688C 34.2578 22.4688 33.75 22.3281 33.375 22.0469C 33.0156 21.7813 32.7422 21.4453 32.5547 21.0391C 32.3828 20.6328 32.2812 20.1875 32.25 19.7031C 32.2031 19.2188 32.1797 18.7656 32.1797 18.3438C 32.1797 18.0469 32.2188 17.7187 32.2969 17.3594C 32.3594 17 32.4531 16.6328 32.5781 16.2578C 32.7031 15.8828 32.8594 15.5078 33.0469 15.1328C 33.25 14.7578 33.4844 14.4141 33.75 14.1016C 33.8438 13.8359 33.9844 13.6016 34.1719 13.3984C 34.375 13.1953 34.6016 13.0313 34.8516 12.9062C 35.1172 12.7656 35.3984 12.6641 35.6953 12.6016C 35.9922 12.5234 36.2812 12.4844 36.5625 12.4844C 36.6094 12.4844 36.6484 12.4922 36.6797 12.5078C 36.7266 12.5234 36.7734 12.5391 36.8203 12.5547C 37.0234 12.5703 37.2734 12.6484 37.5703 12.7891C 37.8828 12.9297 38.1797 13.1406 38.4609 13.4219C 38.7578 13.7031 39.0078 14.0625 39.2109 14.5C 39.4141 14.9219 39.5156 15.4375 39.5156 16.0469C 39.5156 16.1719 39.5078 16.3281 39.4922 16.5156C 39.4766 16.6875 39.4609 16.8359 39.4453 16.9609C 39.8047 16.8203 40.1797 16.6484 40.5703 16.4453C 40.9609 16.2422 41.3359 16.0312 41.6953 15.8125C 42.0703 15.5781 42.4141 15.3438 42.7266 15.1094C 43.0391 14.875 43.2891 14.6641 43.4766 14.4766C 43.6328 14.3359 43.7656 14.2578 43.875 14.2422C 43.9844 14.2266 44.0625 14.2578 44.1094 14.3359C 44.1562 14.4141 44.1641 14.5234 44.1328 14.6641C 44.1016 14.8047 44.0156 14.9609 43.875 15.1328C 43.7969 15.2266 43.5938 15.4141 43.2656 15.6953C 42.9531 15.9766 42.5781 16.2812 42.1406 16.6094C 41.7031 16.9375 41.2266 17.2578 40.7109 17.5703C 40.1953 17.8828 39.7031 18.1172 39.2344 18.2734ZM 35.2734 14.7109C 35.2266 14.8516 35.2031 15 35.2031 15.1562C 35.2031 15.4062 35.2187 15.6719 35.25 15.9531C 35.2813 16.2187 35.3594 16.4609 35.4844 16.6797C 35.6094 16.8984 35.8047 17.0859 36.0703 17.2422C 36.3516 17.3828 36.7344 17.4531 37.2188 17.4531C 37.2969 17.4531 37.375 17.4531 37.4531 17.4531C 37.5312 17.4375 37.6094 17.4219 37.6875 17.4062C 37.7344 17.2031 37.7734 17.0234 37.8047 16.8672C 37.8516 16.6953 37.875 16.5469 37.875 16.4219C 37.9062 16.125 37.9062 15.8203 37.875 15.5078C 37.8438 15.1953 37.7812 14.9141 37.6875 14.6641C 37.6094 14.3984 37.5 14.1875 37.3594 14.0312C 37.2344 13.8594 37.0781 13.7734 36.8906 13.7734C 36.5937 13.7734 36.3047 13.8594 36.0234 14.0312C 35.7578 14.1875 35.5078 14.4141 35.2734 14.7109ZM 33.7734 18.8359C 33.7734 19.1172 33.7891 19.3984 33.8203 19.6797C 33.8516 19.9453 33.9141 20.1875 34.0078 20.4062C 34.1016 20.6094 34.2266 20.7812 34.3828 20.9219C 34.5391 21.0469 34.7422 21.1094 34.9922 21.1094C 35.2734 21.1094 35.5312 21.0469 35.7656 20.9219C 36 20.7812 36.2109 20.6094 36.3984 20.4062C 36.5859 20.1875 36.75 19.9453 36.8906 19.6797C 37.0469 19.3984 37.1797 19.1094 37.2891 18.8125C 37.1797 18.8281 37.0703 18.8437 36.9609 18.8594C 36.8672 18.8594 36.7578 18.8594 36.6328 18.8594C 36.0391 18.8594 35.5234 18.6875 35.0859 18.3438C 34.6641 17.9844 34.3359 17.5312 34.1016 16.9844C 34.0078 17.3125 33.9297 17.6328 33.8672 17.9453C 33.8047 18.2578 33.7734 18.5547 33.7734 18.8359Z"/>
</defs>
</svg>
